<svg xmlns="http://www.w3.org/2000/svg" xmlns:s="https://github.com/nturley/netlistsvg" xmlns:xlink="http://www.w3.org/1999/xlink" width="1850" height="1257.5"><style>svg{stroke:#000;fill:none}text{fill:#000;stroke:none;font-size:10px;font-weight:700;font-family:&quot;Courier New&quot;,monospace}.nodelabel{text-anchor:middle}.inputPortLabel{text-anchor:end}.splitjoinBody{fill:#000}</style><g transform="translate(18,369)" s:height="20" s:type="inputExt" s:width="30"><text x="15" y="-4" class="nodelabel" s:attribute="ref">cpu_debug</text><s:alias val="$_inputExt_"/><path d="M0,0 L0,20 L15,20 L30,10 L15,0 Z"/></g><g transform="translate(18,487)" s:height="20" s:type="inputExt" s:width="30"><text x="15" y="-4" class="nodelabel" s:attribute="ref">cpu_nxtInstr</text><s:alias val="$_inputExt_"/><path d="M0,0 L0,20 L15,20 L30,10 L15,0 Z"/></g><g transform="translate(169,1131.5)" s:height="20" s:type="inputExt" s:width="30"><text x="15" y="-4" class="nodelabel" s:attribute="ref">cpu_in_data</text><s:alias val="$_inputExt_"/><path d="M0,0 L0,20 L15,20 L30,10 L15,0 Z"/></g><g transform="translate(169,1206.5)" s:height="20" s:type="inputExt" s:width="30"><text x="15" y="-4" class="nodelabel" s:attribute="ref">cpu_in_wr</text><s:alias val="$_inputExt_"/><path d="M0,0 L0,20 L15,20 L30,10 L15,0 Z"/></g><g transform="translate(1089,820.5)" s:height="20" s:type="inputExt" s:width="30"><text x="15" y="-4" class="nodelabel" s:attribute="ref">cpu_out_rd</text><s:alias val="$_inputExt_"/><path d="M0,0 L0,20 L15,20 L30,10 L15,0 Z"/></g><g transform="translate(655,954)" s:height="20" s:type="inputExt" s:width="30"><text x="15" y="-4" class="nodelabel" s:attribute="ref">cpu_dmp_chip_select</text><s:alias val="$_inputExt_"/><path d="M0,0 L0,20 L15,20 L30,10 L15,0 Z"/></g><g transform="translate(169,795.5)" s:height="20" s:type="inputExt" s:width="30"><text x="15" y="-4" class="nodelabel" s:attribute="ref">cpu_dmp_fifo_pos</text><s:alias val="$_inputExt_"/><path d="M0,0 L0,20 L15,20 L30,10 L15,0 Z"/></g><g transform="translate(18,303.5)" s:height="20" s:type="inputExt" s:width="30"><text x="15" y="-4" class="nodelabel" s:attribute="ref">clk</text><s:alias val="$_inputExt_"/><path d="M0,0 L0,20 L15,20 L30,10 L15,0 Z"/></g><g transform="translate(18,428)" s:height="20" s:type="inputExt" s:width="30"><text x="15" y="-4" class="nodelabel" s:attribute="ref">i_rst</text><s:alias val="$_inputExt_"/><path d="M0,0 L0,20 L15,20 L30,10 L15,0 Z"/></g><g transform="translate(1759,1225.5)" s:height="20" s:type="outputExt" s:width="30"><text x="15" y="-4" class="nodelabel" s:attribute="ref">cpu_in_full</text><s:alias val="$_outputExt_"/><path d="M30,0 L30,20 L15,20 L0,10 L15,0 Z"/></g><g transform="translate(1759,26)" s:height="20" s:type="outputExt" s:width="30"><text x="15" y="-4" class="nodelabel" s:attribute="ref">cpu_out_empty</text><s:alias val="$_outputExt_"/><path d="M30,0 L30,20 L15,20 L0,10 L15,0 Z"/></g><g transform="translate(1759,755.5)" s:height="20" s:type="outputExt" s:width="30"><text x="15" y="-4" class="nodelabel" s:attribute="ref">cpu_out_data</text><s:alias val="$_outputExt_"/><path d="M30,0 L30,20 L15,20 L0,10 L15,0 Z"/></g><g transform="translate(1759,102.5)" s:height="20" s:type="outputExt" s:width="30"><text x="15" y="-4" class="nodelabel" s:attribute="ref">cpu_dmp_data</text><s:alias val="$_outputExt_"/><path d="M30,0 L30,20 L15,20 L0,10 L15,0 Z"/></g><g transform="translate(1759,1019)" s:height="20" s:type="outputExt" s:width="30"><text x="15" y="-4" class="nodelabel" s:attribute="ref">cpu_dmp_valid</text><s:alias val="$_outputExt_"/><path d="M30,0 L30,20 L15,20 L0,10 L15,0 Z"/></g><g transform="translate(1685,26)" s:height="20" s:type="not" s:width="30"><s:alias val="$_NOT_"/><s:alias val="$not"/><path d="M0,0 L0,20 L20,10 Z"/><circle cx="23" cy="10" r="3"/></g><g transform="translate(1759,1166.5)" s:height="20" s:type="not" s:width="30"><s:alias val="$_NOT_"/><s:alias val="$not"/><path d="M0,0 L0,20 L20,10 Z"/><circle cx="23" cy="10" r="3"/></g><g transform="translate(1688.3333333333333,1009)" s:height="40" s:type="mux" s:width="20"><s:alias val="$pmux"/><s:alias val="$mux"/><s:alias val="$_MUX_"/><path d="M0,0 L20,10 L20,30 L0,40 Z"/></g><g transform="translate(1101.3333333333333,1059.5)" s:height="25" s:type="eq" s:width="25"><s:alias val="$eq"/><circle cx="12.5" cy="12.5" r="12.5"/><line x1="7.5" x2="17.5" y1="10" y2="10"/><line x1="7.5" x2="17.5" y1="15" y2="15"/></g><g transform="translate(1089,1123.5)" s:height="40" s:type="generic" s:width="30"><text x="15" y="-4" class="nodelabel" s:attribute="ref">$logic_not</text><rect width="30" height="20" s:generic="body"/><g s:pid="in0" s:x="0" s:y="10"><text x="-3" y="-4" class="inputPortLabel" transform="translate(0,10)">A</text></g><g s:pid="out0" s:x="30" s:y="10"><text x="5" y="-4" transform="translate(30,10)" style="fill:#000;stroke:none">Y</text></g></g><g transform="translate(1688.3333333333333,92.5)" s:height="40" s:type="mux" s:width="20"><s:alias val="$pmux"/><s:alias val="$mux"/><s:alias val="$_MUX_"/><path d="M0,0 L20,10 L20,30 L0,40 Z"/></g><g transform="translate(1310.3333333333333,899)" s:height="25" s:type="eq" s:width="25"><s:alias val="$eq"/><circle cx="12.5" cy="12.5" r="12.5"/><line x1="7.5" x2="17.5" y1="10" y2="10"/><line x1="7.5" x2="17.5" y1="15" y2="15"/></g><g transform="translate(1310.3333333333333,959)" s:height="25" s:type="eq" s:width="25"><s:alias val="$eq"/><circle cx="12.5" cy="12.5" r="12.5"/><line x1="7.5" x2="17.5" y1="10" y2="10"/><line x1="7.5" x2="17.5" y1="15" y2="15"/></g><g transform="translate(225.79999999999995,328.5)" s:height="40" s:type="generic" s:width="30"><text x="15" y="-4" class="nodelabel" s:attribute="ref">ControlUnit</text><rect width="30" height="280" s:generic="body"/><g s:pid="in0" s:x="0" s:y="10"><text x="-3" y="-4" class="inputPortLabel" transform="translate(0,10)">INSTR</text></g><g s:pid="in0" s:x="0" s:y="10"><text x="-3" y="-4" class="inputPortLabel" transform="translate(0,30)">clk</text></g><g s:pid="in0" s:x="0" s:y="10"><text x="-3" y="-4" class="inputPortLabel" transform="translate(0,50)">debug</text></g><g s:pid="in0" s:x="0" s:y="10"><text x="-3" y="-4" class="inputPortLabel" transform="translate(0,70)">i_rst</text></g><g s:pid="in0" s:x="0" s:y="10"><text x="-3" y="-4" class="inputPortLabel" transform="translate(0,90)">inEmpty</text></g><g s:pid="in0" s:x="0" s:y="10"><text x="-3" y="-4" class="inputPortLabel" transform="translate(0,110)">nxtInstr</text></g><g s:pid="in0" s:x="0" s:y="10"><text x="-3" y="-4" class="inputPortLabel" transform="translate(0,130)">outFull</text></g><g s:pid="out0" s:x="30" s:y="10"><text x="5" y="-4" transform="translate(30,10)" style="fill:#000;stroke:none">aluCtl</text></g><g s:pid="out0" s:x="30" s:y="10"><text x="5" y="-4" transform="translate(30,30)" style="fill:#000;stroke:none">branch</text></g><g s:pid="out0" s:x="30" s:y="10"><text x="5" y="-4" transform="translate(30,50)" style="fill:#000;stroke:none">halt</text></g><g s:pid="out0" s:x="30" s:y="10"><text x="5" y="-4" transform="translate(30,70)" style="fill:#000;stroke:none">ijump</text></g><g s:pid="out0" s:x="30" s:y="10"><text x="5" y="-4" transform="translate(30,90)" style="fill:#000;stroke:none">muxR</text></g><g s:pid="out0" s:x="30" s:y="10"><text x="5" y="-4" transform="translate(30,110)" style="fill:#000;stroke:none">rIn</text></g><g s:pid="out0" s:x="30" s:y="10"><text x="5" y="-4" transform="translate(30,130)" style="fill:#000;stroke:none">rst</text></g><g s:pid="out0" s:x="30" s:y="10"><text x="5" y="-4" transform="translate(30,150)" style="fill:#000;stroke:none">srcA</text></g><g s:pid="out0" s:x="30" s:y="10"><text x="5" y="-4" transform="translate(30,170)" style="fill:#000;stroke:none">wAR</text></g><g s:pid="out0" s:x="30" s:y="10"><text x="5" y="-4" transform="translate(30,190)" style="fill:#000;stroke:none">wIR</text></g><g s:pid="out0" s:x="30" s:y="10"><text x="5" y="-4" transform="translate(30,210)" style="fill:#000;stroke:none">wM</text></g><g s:pid="out0" s:x="30" s:y="10"><text x="5" y="-4" transform="translate(30,230)" style="fill:#000;stroke:none">wO</text></g><g s:pid="out0" s:x="30" s:y="10"><text x="5" y="-4" transform="translate(30,250)" style="fill:#000;stroke:none">wPC</text></g><g s:pid="out0" s:x="30" s:y="10"><text x="5" y="-4" transform="translate(30,270)" style="fill:#000;stroke:none">wR</text></g></g><g transform="translate(755,1106)" s:height="40" s:type="generic" s:width="30"><text x="15" y="-4" class="nodelabel" s:attribute="ref">$paramod\ufifo\LGFLEN=4&apos;0101\RXFIFO=1&apos;1</text><rect width="30" height="120" s:generic="body"/><g s:pid="in0" s:x="0" s:y="10"><text x="-3" y="-4" class="inputPortLabel" transform="translate(0,10)">i_clk</text></g><g s:pid="in0" s:x="0" s:y="10"><text x="-3" y="-4" class="inputPortLabel" transform="translate(0,30)">i_data</text></g><g s:pid="in0" s:x="0" s:y="10"><text x="-3" y="-4" class="inputPortLabel" transform="translate(0,50)">i_dmp_pos</text></g><g s:pid="in0" s:x="0" s:y="10"><text x="-3" y="-4" class="inputPortLabel" transform="translate(0,70)">i_rd</text></g><g s:pid="in0" s:x="0" s:y="10"><text x="-3" y="-4" class="inputPortLabel" transform="translate(0,90)">i_rst</text></g><g s:pid="in0" s:x="0" s:y="10"><text x="-3" y="-4" class="inputPortLabel" transform="translate(0,110)">i_wr</text></g><g s:pid="out0" s:x="30" s:y="10"><text x="5" y="-4" transform="translate(30,10)" style="fill:#000;stroke:none">o_data</text></g><g s:pid="out0" s:x="30" s:y="10"><text x="5" y="-4" transform="translate(30,30)" style="fill:#000;stroke:none">o_dmp_data</text></g><g s:pid="out0" s:x="30" s:y="10"><text x="5" y="-4" transform="translate(30,50)" style="fill:#000;stroke:none">o_dmp_valid</text></g><g s:pid="out0" s:x="30" s:y="10"><text x="5" y="-4" transform="translate(30,70)" style="fill:#000;stroke:none">o_empty_n</text></g><g s:pid="out0" s:x="30" s:y="10"><text x="5" y="-4" transform="translate(30,90)" style="fill:#000;stroke:none">o_err</text></g></g><g transform="translate(1286.8,657)" s:height="40" s:type="generic" s:width="30"><text x="15" y="-4" class="nodelabel" s:attribute="ref">IR</text><rect width="30" height="60" s:generic="body"/><g s:pid="in0" s:x="0" s:y="10"><text x="-3" y="-4" class="inputPortLabel" transform="translate(0,10)">clk</text></g><g s:pid="in0" s:x="0" s:y="10"><text x="-3" y="-4" class="inputPortLabel" transform="translate(0,30)">nIR</text></g><g s:pid="in0" s:x="0" s:y="10"><text x="-3" y="-4" class="inputPortLabel" transform="translate(0,50)">wIR</text></g><g s:pid="out0" s:x="30" s:y="10"><text x="5" y="-4" transform="translate(30,10)" style="fill:#000;stroke:none">rIR</text></g></g><g transform="translate(653,263)" s:height="40" s:type="generic" s:width="30"><text x="15" y="-4" class="nodelabel" s:attribute="ref">$paramod$58ac6ac029eeca312e61ef4d101184e423f52970\MEMORY</text><rect width="30" height="120" s:generic="body"/><g s:pid="in0" s:x="0" s:y="10"><text x="-3" y="-4" class="inputPortLabel" transform="translate(0,10)">ADDR</text></g><g s:pid="in0" s:x="0" s:y="10"><text x="-3" y="-4" class="inputPortLabel" transform="translate(0,30)">R</text></g><g s:pid="in0" s:x="0" s:y="10"><text x="-3" y="-4" class="inputPortLabel" transform="translate(0,50)">clk</text></g><g s:pid="in0" s:x="0" s:y="10"><text x="-3" y="-4" class="inputPortLabel" transform="translate(0,70)">srcA</text></g><g s:pid="in0" s:x="0" s:y="10"><text x="-3" y="-4" class="inputPortLabel" transform="translate(0,90)">wAR</text></g><g s:pid="in0" s:x="0" s:y="10"><text x="-3" y="-4" class="inputPortLabel" transform="translate(0,110)">wM</text></g><g s:pid="out0" s:x="30" s:y="10"><text x="5" y="-4" transform="translate(30,10)" style="fill:#000;stroke:none">M</text></g></g><g transform="translate(1254,755)" s:height="40" s:type="generic" s:width="30"><text x="15" y="-4" class="nodelabel" s:attribute="ref">$paramod\ufifo\LGFLEN=4&apos;0101\RXFIFO=1&apos;1</text><rect width="30" height="120" s:generic="body"/><g s:pid="in0" s:x="0" s:y="10"><text x="-3" y="-4" class="inputPortLabel" transform="translate(0,10)">i_clk</text></g><g s:pid="in0" s:x="0" s:y="10"><text x="-3" y="-4" class="inputPortLabel" transform="translate(0,30)">i_data</text></g><g s:pid="in0" s:x="0" s:y="10"><text x="-3" y="-4" class="inputPortLabel" transform="translate(0,50)">i_dmp_pos</text></g><g s:pid="in0" s:x="0" s:y="10"><text x="-3" y="-4" class="inputPortLabel" transform="translate(0,70)">i_rd</text></g><g s:pid="in0" s:x="0" s:y="10"><text x="-3" y="-4" class="inputPortLabel" transform="translate(0,90)">i_rst</text></g><g s:pid="in0" s:x="0" s:y="10"><text x="-3" y="-4" class="inputPortLabel" transform="translate(0,110)">i_wr</text></g><g s:pid="out0" s:x="30" s:y="10"><text x="5" y="-4" transform="translate(30,10)" style="fill:#000;stroke:none">o_data</text></g><g s:pid="out0" s:x="30" s:y="10"><text x="5" y="-4" transform="translate(30,30)" style="fill:#000;stroke:none">o_dmp_data</text></g><g s:pid="out0" s:x="30" s:y="10"><text x="5" y="-4" transform="translate(30,50)" style="fill:#000;stroke:none">o_dmp_valid</text></g><g s:pid="out0" s:x="30" s:y="10"><text x="5" y="-4" transform="translate(30,70)" style="fill:#000;stroke:none">o_empty_n</text></g><g s:pid="out0" s:x="30" s:y="10"><text x="5" y="-4" transform="translate(30,90)" style="fill:#000;stroke:none">o_err</text></g></g><g transform="translate(1606,92)" s:height="40" s:type="generic" s:width="30"><text x="15" y="-4" class="nodelabel" s:attribute="ref">PC</text><rect width="30" height="140" s:generic="body"/><g s:pid="in0" s:x="0" s:y="10"><text x="-3" y="-4" class="inputPortLabel" transform="translate(0,10)">aluFlag</text></g><g s:pid="in0" s:x="0" s:y="10"><text x="-3" y="-4" class="inputPortLabel" transform="translate(0,30)">branch</text></g><g s:pid="in0" s:x="0" s:y="10"><text x="-3" y="-4" class="inputPortLabel" transform="translate(0,50)">clk</text></g><g s:pid="in0" s:x="0" s:y="10"><text x="-3" y="-4" class="inputPortLabel" transform="translate(0,70)">ijump</text></g><g s:pid="in0" s:x="0" s:y="10"><text x="-3" y="-4" class="inputPortLabel" transform="translate(0,90)">jmpAddr</text></g><g s:pid="in0" s:x="0" s:y="10"><text x="-3" y="-4" class="inputPortLabel" transform="translate(0,110)">rst</text></g><g s:pid="in0" s:x="0" s:y="10"><text x="-3" y="-4" class="inputPortLabel" transform="translate(0,130)">wPC</text></g><g s:pid="out0" s:x="30" s:y="10"><text x="5" y="-4" transform="translate(30,10)" style="fill:#000;stroke:none">PC</text></g></g><g transform="translate(1286.8,72)" s:height="40" s:type="generic" s:width="30"><text x="15" y="-4" class="nodelabel" s:attribute="ref">ALU</text><rect width="30" height="60" s:generic="body"/><g s:pid="in0" s:x="0" s:y="10"><text x="-3" y="-4" class="inputPortLabel" transform="translate(0,10)">aluCtl</text></g><g s:pid="in0" s:x="0" s:y="10"><text x="-3" y="-4" class="inputPortLabel" transform="translate(0,30)">inM</text></g><g s:pid="in0" s:x="0" s:y="10"><text x="-3" y="-4" class="inputPortLabel" transform="translate(0,50)">inR</text></g><g s:pid="out0" s:x="30" s:y="10"><text x="5" y="-4" transform="translate(30,10)" style="fill:#000;stroke:none">aluOut</text></g><g s:pid="out0" s:x="30" s:y="10"><text x="5" y="-4" transform="translate(30,30)" style="fill:#000;stroke:none">flag</text></g></g><g transform="translate(169,237.5)" s:height="40" s:type="generic" s:width="30"><text x="15" y="-4" class="nodelabel" s:attribute="ref">$paramod$220c18cf809e60bc47338ac0392ec00161b6e80c\PROG</text><rect width="30" height="40" s:generic="body"/><g s:pid="in0" s:x="0" s:y="10"><text x="-3" y="-4" class="inputPortLabel" transform="translate(0,10)">Addr</text></g><g s:pid="in0" s:x="0" s:y="10"><text x="-3" y="-4" class="inputPortLabel" transform="translate(0,30)">clk</text></g><g s:pid="out0" s:x="30" s:y="10"><text x="5" y="-4" transform="translate(30,10)" style="fill:#000;stroke:none">Data</text></g></g><g transform="translate(1101,197.5)" s:height="40" s:type="generic" s:width="30"><text x="15" y="-4" class="nodelabel" s:attribute="ref">register</text><rect width="30" height="140" s:generic="body"/><g s:pid="in0" s:x="0" s:y="10"><text x="-3" y="-4" class="inputPortLabel" transform="translate(0,10)">clk</text></g><g s:pid="in0" s:x="0" s:y="10"><text x="-3" y="-4" class="inputPortLabel" transform="translate(0,30)">iAlu</text></g><g s:pid="in0" s:x="0" s:y="10"><text x="-3" y="-4" class="inputPortLabel" transform="translate(0,50)">iData</text></g><g s:pid="in0" s:x="0" s:y="10"><text x="-3" y="-4" class="inputPortLabel" transform="translate(0,70)">iInbox</text></g><g s:pid="in0" s:x="0" s:y="10"><text x="-3" y="-4" class="inputPortLabel" transform="translate(0,90)">iMem</text></g><g s:pid="in0" s:x="0" s:y="10"><text x="-3" y="-4" class="inputPortLabel" transform="translate(0,110)">muxR</text></g><g s:pid="in0" s:x="0" s:y="10"><text x="-3" y="-4" class="inputPortLabel" transform="translate(0,130)">wR</text></g><g s:pid="out0" s:x="30" s:y="10"><text x="5" y="-4" transform="translate(30,10)" style="fill:#000;stroke:none">R</text></g></g><g transform="translate(653,1009)" s:height="20" s:type="constant" s:width="30"><text x="15" y="-4" class="nodelabel" s:attribute="ref">1</text><s:alias val="$_constant_"/><rect width="30" height="20"/></g><g transform="translate(1089,915)" s:height="20" s:type="constant" s:width="30"><text x="15" y="-4" class="nodelabel" s:attribute="ref">100</text><s:alias val="$_constant_"/><rect width="30" height="20"/></g><g transform="translate(1089,975)" s:height="20" s:type="constant" s:width="30"><text x="15" y="-4" class="nodelabel" s:attribute="ref">101</text><s:alias val="$_constant_"/><rect width="30" height="20"/></g><g transform="translate(1605,1032)" s:height="40" s:type="join" s:width="4"><rect width="5" height="40" class="splitjoinBody" s:generic="body"/><s:alias val="$_join_"/><g s:pid="in0" s:x="0" s:y="10"><text x="-3" y="-4" class="inputPortLabel" transform="translate(0,10)">0</text></g><g s:pid="in0" s:x="0" s:y="10"><text x="-3" y="-4" class="inputPortLabel" transform="translate(0,30)">1</text></g></g><g transform="translate(1317.3333333333333,1061.5)" s:height="40" s:type="join" s:width="4"><rect width="5" height="40" class="splitjoinBody" s:generic="body"/><s:alias val="$_join_"/><g s:pid="in0" s:x="0" s:y="10"><text x="-3" y="-4" class="inputPortLabel" transform="translate(0,10)">0</text></g><g s:pid="in0" s:x="0" s:y="10"><text x="-3" y="-4" class="inputPortLabel" transform="translate(0,30)">1</text></g></g><g transform="translate(1605.25,631.5)" s:height="40" s:type="join" s:width="4"><rect width="5" height="80" class="splitjoinBody" s:generic="body"/><s:alias val="$_join_"/><g s:pid="in0" s:x="0" s:y="10"><text x="-3" y="-4" class="inputPortLabel" transform="translate(0,10)">0:7</text></g><g s:pid="in0" s:x="0" s:y="10"><text x="-3" y="-4" class="inputPortLabel" transform="translate(0,30)">8:15</text></g><g s:pid="in0" s:x="0" s:y="10"><text x="-3" y="-4" class="inputPortLabel" transform="translate(0,50)">16:23</text></g><g s:pid="in0" s:x="0" s:y="10"><text x="-3" y="-4" class="inputPortLabel" transform="translate(0,70)">24:31</text></g></g><g transform="translate(1605.25,901)" s:height="40" s:type="join" s:width="4"><rect width="5" height="60" class="splitjoinBody" s:generic="body"/><s:alias val="$_join_"/><g s:pid="in0" s:x="0" s:y="10"><text x="-3" y="-4" class="inputPortLabel" transform="translate(0,10)">0</text></g><g s:pid="in0" s:x="0" s:y="10"><text x="-3" y="-4" class="inputPortLabel" transform="translate(0,30)">1</text></g><g s:pid="in0" s:x="0" s:y="10"><text x="-3" y="-4" class="inputPortLabel" transform="translate(0,50)">2:3</text></g></g><line x1="786" x2="1014" y1="1196.5" y2="1196.5"/><line x1="1014" x2="1014" y1="1196.5" y2="1235.5"/><line x1="1014" x2="1759" y1="1235.5" y2="1235.5"/><line x1="1710" x2="1759" y1="36" y2="36"/><line x1="1285" x2="1759" y1="765.5" y2="765.5"/><line x1="1708.333" x2="1759" y1="112.5" y2="112.5"/><line x1="1708.333" x2="1759" y1="1029" y2="1029"/><line x1="1285" x2="1523" y1="825.5" y2="825.5"/><line x1="1523" x2="1523" y1="825.5" y2="36"/><line x1="1523" x2="1685" y1="36" y2="36"/><line x1="786" x2="1759" y1="1176.5" y2="1176.5"/><line x1="683" x2="1688.333" y1="1019" y2="1019"/><line x1="683" x2="1044" y1="1019" y2="1019"/><line x1="1044" x2="1044" y1="1019" y2="1079.5"/><circle cx="1044" cy="1019" r="2" style="fill:#000"/><line x1="1044" x2="1104.333" y1="1079.5" y2="1079.5"/><line x1="1611" x2="1660" y1="1052.5" y2="1052.5"/><line x1="1660" x2="1660" y1="1052.5" y2="1039"/><line x1="1660" x2="1688.333" y1="1039" y2="1039"/><line x1="1323.333" x2="1698.333" y1="1082" y2="1082"/><line x1="1698.333" x2="1698.333" y1="1082" y2="1044"/><line x1="1323.333" x2="1523" y1="1082" y2="1082"/><line x1="1523" x2="1523" y1="1082" y2="951.5"/><circle cx="1523" cy="1082" r="2" style="fill:#000"/><line x1="1523" x2="1605.25" y1="951.5" y2="951.5"/><line x1="683" x2="1054" y1="964" y2="964"/><line x1="1054" x2="1054" y1="964" y2="1064.5"/><circle cx="1054" cy="964" r="2" style="fill:#000"/><circle cx="1054" cy="1064.5" r="2" style="fill:#000"/><line x1="1054" x2="1104.333" y1="1064.5" y2="1064.5"/><line x1="683" x2="1054" y1="964" y2="964"/><line x1="1054" x2="1054" y1="964" y2="1134"/><line x1="1054" x2="1089" y1="1134" y2="1134"/><line x1="683" x2="1054" y1="964" y2="964"/><line x1="1054" x2="1054" y1="964" y2="904"/><line x1="1054" x2="1313.333" y1="904" y2="904"/><line x1="683" x2="1313.333" y1="964" y2="964"/><line x1="1637" x2="1688.333" y1="102.5" y2="102.5"/><line x1="1637" x2="1660" y1="102.5" y2="102.5"/><line x1="1660" x2="1660" y1="102.5" y2="47"/><line x1="1660" x2="134" y1="47" y2="47"/><line x1="134" x2="134" y1="47" y2="248"/><circle cx="1660" cy="102.5" r="2" style="fill:#000"/><line x1="134" x2="169" y1="248" y2="248"/><line x1="1611.25" x2="1660" y1="652" y2="652"/><line x1="1660" x2="1660" y1="652" y2="122.5"/><line x1="1660" x2="1688.333" y1="122.5" y2="122.5"/><line x1="1611.25" x2="1698.333" y1="921.5" y2="921.5"/><line x1="1698.333" x2="1698.333" y1="921.5" y2="127.5"/><line x1="1119" x2="1174" y1="925" y2="925"/><line x1="1174" x2="1174" y1="925" y2="919"/><line x1="1174" x2="1313.333" y1="919" y2="919"/><line x1="1119" x2="1174" y1="985" y2="985"/><line x1="1174" x2="1174" y1="985" y2="979"/><line x1="1174" x2="1313.333" y1="979" y2="979"/><line x1="1317.8" x2="1513" y1="667.5" y2="667.5"/><line x1="1513" x2="1513" y1="667.5" y2="730"/><line x1="1513" x2="124" y1="730" y2="730"/><line x1="124" x2="124" y1="730" y2="339"/><line x1="124" x2="225.8" y1="339" y2="339"/><line x1="1317.8" x2="1513" y1="667.5" y2="667.5"/><line x1="1513" x2="1513" y1="667.5" y2="662"/><circle cx="1513" cy="667.5" r="2" style="fill:#000"/><line x1="1513" x2="1605.25" y1="662" y2="662"/><line x1="46" x2="114" y1="313.5" y2="313.5"/><line x1="114" x2="114" y1="313.5" y2="359"/><circle cx="114" cy="313.5" r="2" style="fill:#000"/><circle cx="114" cy="359" r="2" style="fill:#000"/><line x1="114" x2="225.8" y1="359" y2="359"/><line x1="46" x2="114" y1="313.5" y2="313.5"/><line x1="114" x2="114" y1="313.5" y2="1116.5"/><line x1="114" x2="755" y1="1116.5" y2="1116.5"/><line x1="46" x2="114" y1="313.5" y2="313.5"/><line x1="114" x2="114" y1="313.5" y2="667.5"/><circle cx="114" cy="667.5" r="2" style="fill:#000"/><line x1="114" x2="1286.8" y1="667.5" y2="667.5"/><line x1="46" x2="653" y1="313.5" y2="313.5"/><line x1="46" x2="114" y1="313.5" y2="313.5"/><line x1="114" x2="114" y1="313.5" y2="765.5"/><circle cx="114" cy="765.5" r="2" style="fill:#000"/><line x1="114" x2="1254" y1="765.5" y2="765.5"/><line x1="46" x2="114" y1="313.5" y2="313.5"/><line x1="114" x2="114" y1="313.5" y2="156"/><line x1="114" x2="1533" y1="156" y2="156"/><line x1="1533" x2="1533" y1="156" y2="142.5"/><line x1="1533" x2="1606" y1="142.5" y2="142.5"/><line x1="46" x2="114" y1="313.5" y2="313.5"/><line x1="114" x2="114" y1="313.5" y2="268"/><circle cx="114" cy="268" r="2" style="fill:#000"/><line x1="114" x2="169" y1="268" y2="268"/><line x1="46" x2="114" y1="313.5" y2="313.5"/><line x1="114" x2="114" y1="313.5" y2="156"/><line x1="114" x2="588" y1="156" y2="156"/><line x1="588" x2="588" y1="156" y2="208"/><circle cx="588" cy="156" r="2" style="fill:#000"/><line x1="588" x2="1101" y1="208" y2="208"/><line x1="46" x2="225.8" y1="379" y2="379"/><line x1="46" x2="94" y1="438" y2="438"/><line x1="94" x2="94" y1="438" y2="399"/><line x1="94" x2="225.8" y1="399" y2="399"/><line x1="1784" x2="1838" y1="1176.5" y2="1176.5"/><line x1="1838" x2="1838" y1="1176.5" y2="12"/><line x1="1838" x2="104" y1="12" y2="12"/><line x1="104" x2="104" y1="12" y2="419"/><line x1="104" x2="225.8" y1="419" y2="419"/><line x1="46" x2="104" y1="497" y2="497"/><line x1="104" x2="104" y1="497" y2="439"/><line x1="104" x2="225.8" y1="439" y2="439"/><line x1="1285" x2="1513" y1="845.5" y2="845.5"/><line x1="1513" x2="1513" y1="845.5" y2="741"/><line x1="1513" x2="134" y1="741" y2="741"/><line x1="134" x2="134" y1="741" y2="459"/><line x1="134" x2="225.8" y1="459" y2="459"/><line x1="197" x2="568" y1="1141.5" y2="1141.5"/><line x1="568" x2="568" y1="1141.5" y2="1136.5"/><line x1="568" x2="755" y1="1136.5" y2="1136.5"/><line x1="197" x2="528" y1="805.5" y2="805.5"/><line x1="528" x2="528" y1="805.5" y2="1156.5"/><circle cx="528" cy="805.5" r="2" style="fill:#000"/><line x1="528" x2="755" y1="1156.5" y2="1156.5"/><line x1="197" x2="1254" y1="805.5" y2="805.5"/><line x1="256.8" x2="518" y1="439" y2="439"/><line x1="518" x2="518" y1="439" y2="1176.5"/><line x1="518" x2="755" y1="1176.5" y2="1176.5"/><line x1="256.8" x2="558" y1="459" y2="459"/><line x1="558" x2="558" y1="459" y2="1196.5"/><line x1="558" x2="755" y1="1196.5" y2="1196.5"/><line x1="256.8" x2="558" y1="459" y2="459"/><line x1="558" x2="558" y1="459" y2="850.5"/><line x1="558" x2="1174" y1="850.5" y2="850.5"/><line x1="1174" x2="1174" y1="850.5" y2="845.5"/><circle cx="558" cy="850.5" r="2" style="fill:#000"/><line x1="1174" x2="1254" y1="845.5" y2="845.5"/><line x1="256.8" x2="558" y1="459" y2="459"/><line x1="558" x2="558" y1="459" y2="620"/><line x1="558" x2="1513" y1="620" y2="620"/><line x1="1513" x2="1513" y1="620" y2="202.5"/><circle cx="558" cy="620" r="2" style="fill:#000"/><line x1="1513" x2="1606" y1="202.5" y2="202.5"/><line x1="197" x2="755" y1="1216.5" y2="1216.5"/><line x1="200" x2="578" y1="248" y2="248"/><line x1="578" x2="578" y1="248" y2="687.5"/><circle cx="578" cy="248" r="2" style="fill:#000"/><line x1="578" x2="1286.8" y1="687.5" y2="687.5"/><line x1="200" x2="578" y1="248" y2="248"/><line x1="578" x2="578" y1="248" y2="273.5"/><circle cx="578" cy="273.5" r="2" style="fill:#000"/><line x1="578" x2="653" y1="273.5" y2="273.5"/><line x1="200" x2="578" y1="248" y2="248"/><line x1="578" x2="578" y1="248" y2="182.5"/><line x1="578" x2="1606" y1="182.5" y2="182.5"/><line x1="200" x2="1101" y1="248" y2="248"/><line x1="256.8" x2="548" y1="519" y2="519"/><line x1="548" x2="548" y1="519" y2="707.5"/><line x1="548" x2="1286.8" y1="707.5" y2="707.5"/><line x1="1132" x2="1174" y1="208" y2="208"/><line x1="1174" x2="1174" y1="208" y2="610"/><line x1="1174" x2="598" y1="610" y2="610"/><line x1="598" x2="598" y1="610" y2="293.5"/><circle cx="1174" cy="610" r="2" style="fill:#000"/><line x1="598" x2="653" y1="293.5" y2="293.5"/><line x1="1132" x2="1174" y1="208" y2="208"/><line x1="1174" x2="1174" y1="208" y2="785.5"/><circle cx="1174" cy="208" r="2" style="fill:#000"/><line x1="1174" x2="1254" y1="785.5" y2="785.5"/><line x1="1132" x2="1174" y1="208" y2="208"/><line x1="1174" x2="1174" y1="208" y2="122.5"/><line x1="1174" x2="1286.8" y1="122.5" y2="122.5"/><line x1="1132" x2="1174" y1="208" y2="208"/><line x1="1174" x2="1174" y1="208" y2="642"/><circle cx="1174" cy="642" r="2" style="fill:#000"/><line x1="1174" x2="1605.25" y1="642" y2="642"/><line x1="256.8" x2="568" y1="479" y2="479"/><line x1="568" x2="568" y1="479" y2="333.5"/><line x1="568" x2="653" y1="333.5" y2="333.5"/><line x1="256.8" x2="588" y1="499" y2="499"/><line x1="588" x2="588" y1="499" y2="353.5"/><line x1="588" x2="653" y1="353.5" y2="353.5"/><line x1="256.8" x2="608" y1="539" y2="539"/><line x1="608" x2="608" y1="539" y2="373.5"/><line x1="608" x2="653" y1="373.5" y2="373.5"/><line x1="1117" x2="1174" y1="830.5" y2="830.5"/><line x1="1174" x2="1174" y1="830.5" y2="825.5"/><line x1="1174" x2="1254" y1="825.5" y2="825.5"/><line x1="256.8" x2="538" y1="559" y2="559"/><line x1="538" x2="538" y1="559" y2="865.5"/><line x1="538" x2="1254" y1="865.5" y2="865.5"/><line x1="1317.8" x2="1606" y1="102.5" y2="102.5"/><line x1="256.8" x2="528" y1="359" y2="359"/><line x1="528" x2="528" y1="359" y2="145"/><line x1="528" x2="1513" y1="145" y2="145"/><line x1="1513" x2="1513" y1="145" y2="122.5"/><line x1="1513" x2="1606" y1="122.5" y2="122.5"/><line x1="256.8" x2="538" y1="399" y2="399"/><line x1="538" x2="538" y1="399" y2="167"/><line x1="538" x2="1533" y1="167" y2="167"/><line x1="1533" x2="1533" y1="167" y2="162.5"/><line x1="1533" x2="1606" y1="162.5" y2="162.5"/><line x1="256.8" x2="528" y1="579" y2="579"/><line x1="528" x2="528" y1="579" y2="631"/><line x1="528" x2="1533" y1="631" y2="631"/><line x1="1533" x2="1533" y1="631" y2="222.5"/><line x1="1533" x2="1606" y1="222.5" y2="222.5"/><line x1="256.8" x2="518" y1="339" y2="339"/><line x1="518" x2="518" y1="339" y2="82.5"/><line x1="518" x2="1286.8" y1="82.5" y2="82.5"/><line x1="684" x2="1014" y1="273.5" y2="273.5"/><line x1="1014" x2="1014" y1="273.5" y2="102.5"/><circle cx="1014" cy="273.5" r="2" style="fill:#000"/><line x1="1014" x2="1286.8" y1="102.5" y2="102.5"/><line x1="684" x2="1014" y1="273.5" y2="273.5"/><line x1="1014" x2="1014" y1="273.5" y2="288"/><line x1="1014" x2="1101" y1="288" y2="288"/><line x1="1317.8" x2="1513" y1="82.5" y2="82.5"/><line x1="1513" x2="1513" y1="82.5" y2="58"/><line x1="1513" x2="1054" y1="58" y2="58"/><line x1="1054" x2="1054" y1="58" y2="228"/><line x1="1054" x2="1101" y1="228" y2="228"/><line x1="786" x2="1024" y1="1116.5" y2="1116.5"/><line x1="1024" x2="1024" y1="1116.5" y2="268"/><line x1="1024" x2="1101" y1="268" y2="268"/><line x1="256.8" x2="618" y1="419" y2="419"/><line x1="618" x2="618" y1="419" y2="396"/><line x1="618" x2="1014" y1="396" y2="396"/><line x1="1014" x2="1014" y1="396" y2="308"/><line x1="1014" x2="1101" y1="308" y2="308"/><line x1="256.8" x2="1034" y1="599" y2="599"/><line x1="1034" x2="1034" y1="599" y2="328"/><line x1="1034" x2="1101" y1="328" y2="328"/><line x1="1285" x2="1553" y1="805.5" y2="805.5"/><line x1="1553" x2="1553" y1="805.5" y2="1042.5"/><line x1="1553" x2="1605" y1="1042.5" y2="1042.5"/><line x1="786" x2="1533" y1="1156.5" y2="1156.5"/><line x1="1533" x2="1533" y1="1156.5" y2="1062.5"/><line x1="1533" x2="1605" y1="1062.5" y2="1062.5"/><line x1="1126.333" x2="1317.333" y1="1072" y2="1072"/><line x1="1120" x2="1174" y1="1134" y2="1134"/><line x1="1174" x2="1174" y1="1134" y2="1092"/><line x1="1174" x2="1317.333" y1="1092" y2="1092"/><line x1="1285" x2="1533" y1="785.5" y2="785.5"/><line x1="1533" x2="1533" y1="785.5" y2="682"/><line x1="1533" x2="1605.25" y1="682" y2="682"/><line x1="786" x2="1034" y1="1136.5" y2="1136.5"/><line x1="1034" x2="1034" y1="1136.5" y2="888"/><line x1="1034" x2="1543" y1="888" y2="888"/><line x1="1543" x2="1543" y1="888" y2="721.5"/><line x1="1543" x2="1605.75" y1="721.5" y2="721.5"/><line x1="1605.75" x2="1605.75" y1="721.5" y2="702.5"/><line x1="1335.333" x2="1605.25" y1="911.5" y2="911.5"/><line x1="1335.333" x2="1513" y1="971.5" y2="971.5"/><line x1="1513" x2="1513" y1="971.5" y2="931.5"/><line x1="1513" x2="1605.25" y1="931.5" y2="931.5"/></svg>