<svg xmlns="http://www.w3.org/2000/svg" xmlns:s="https://github.com/nturley/netlistsvg" xmlns:xlink="http://www.w3.org/1999/xlink" width="597" height="295"><style>svg{stroke:#000;fill:none}text{fill:#000;stroke:none;font-size:10px;font-weight:700;font-family:&quot;Courier New&quot;,monospace}.nodelabel{text-anchor:middle}.inputPortLabel{text-anchor:end}</style><g transform="translate(135,180)" s:height="20" s:type="inputExt" s:width="30"><text x="15" y="-4" class="nodelabel" s:attribute="ref">ADDR</text><s:alias val="$_inputExt_"/><path d="M0,0 L0,20 L15,20 L30,10 L15,0 Z"/></g><g transform="translate(12,149)" s:height="20" s:type="inputExt" s:width="30"><text x="15" y="-4" class="nodelabel" s:attribute="ref">clk</text><s:alias val="$_inputExt_"/><path d="M0,0 L0,20 L15,20 L30,10 L15,0 Z"/></g><g transform="translate(12,26.5)" s:height="20" s:type="inputExt" s:width="30"><text x="15" y="-4" class="nodelabel" s:attribute="ref">R</text><s:alias val="$_inputExt_"/><path d="M0,0 L0,20 L15,20 L30,10 L15,0 Z"/></g><g transform="translate(135,239)" s:height="20" s:type="inputExt" s:width="30"><text x="15" y="-4" class="nodelabel" s:attribute="ref">srcA</text><s:alias val="$_inputExt_"/><path d="M0,0 L0,20 L15,20 L30,10 L15,0 Z"/></g><g transform="translate(12,208)" s:height="20" s:type="inputExt" s:width="30"><text x="15" y="-4" class="nodelabel" s:attribute="ref">wM</text><s:alias val="$_inputExt_"/><path d="M0,0 L0,20 L15,20 L30,10 L15,0 Z"/></g><g transform="translate(413,263)" s:height="20" s:type="inputExt" s:width="30"><text x="15" y="-4" class="nodelabel" s:attribute="ref">wAR</text><s:alias val="$_inputExt_"/><path d="M0,0 L0,20 L15,20 L30,10 L15,0 Z"/></g><g transform="translate(542,26.5)" s:height="20" s:type="outputExt" s:width="30"><text x="15" y="-4" class="nodelabel" s:attribute="ref">M</text><s:alias val="$_outputExt_"/><path d="M30,0 L30,20 L15,20 L0,10 L15,0 Z"/></g><g transform="translate(542,129)" s:height="40" s:type="dff" s:width="30"><s:alias val="$dff"/><s:alias val="$_DFF_"/><rect width="30" height="40" x="0" y="0"/><path d="M0,35 L5,30 L0,25"/></g><g transform="translate(487,170)" s:height="40" s:type="mux" s:width="20"><s:alias val="$pmux"/><s:alias val="$mux"/><s:alias val="$_MUX_"/><path d="M0,0 L20,10 L20,30 L0,40 Z"/></g><g transform="translate(419.3333333333333,180)" s:height="40" s:type="mux" s:width="20"><s:alias val="$pmux"/><s:alias val="$mux"/><s:alias val="$_MUX_"/><path d="M0,0 L20,10 L20,30 L0,40 Z"/></g><g transform="translate(135,26)" s:height="40" s:type="generic" s:width="30"><text x="15" y="-4" class="nodelabel" s:attribute="ref">$paramod\ram\data_width=8\ram_size=256</text><rect width="30" height="120" s:generic="body"/><g s:pid="in0" s:x="0" s:y="10"><text x="-3" y="-4" class="inputPortLabel" transform="translate(0,10)">din</text></g><g s:pid="in0" s:x="0" s:y="10"><text x="-3" y="-4" class="inputPortLabel" transform="translate(0,30)">raddr</text></g><g s:pid="in0" s:x="0" s:y="10"><text x="-3" y="-4" class="inputPortLabel" transform="translate(0,50)">rclk</text></g><g s:pid="in0" s:x="0" s:y="10"><text x="-3" y="-4" class="inputPortLabel" transform="translate(0,70)">waddr</text></g><g s:pid="in0" s:x="0" s:y="10"><text x="-3" y="-4" class="inputPortLabel" transform="translate(0,90)">wclk</text></g><g s:pid="in0" s:x="0" s:y="10"><text x="-3" y="-4" class="inputPortLabel" transform="translate(0,110)">write_en</text></g><g s:pid="out0" s:x="30" s:y="10"><text x="5" y="-4" transform="translate(30,10)" style="fill:#000;stroke:none">dout</text></g></g><line x1="166" x2="542" y1="36.5" y2="36.5"/><line x1="166" x2="388" y1="36.5" y2="36.5"/><line x1="388" x2="388" y1="36.5" y2="210"/><circle cx="388" cy="36.5" r="2" style="fill:#000"/><line x1="388" x2="419.333" y1="210" y2="210"/><line x1="40" x2="542" y1="159" y2="159"/><line x1="40" x2="61" y1="159" y2="159"/><line x1="61" x2="61" y1="159" y2="76.5"/><circle cx="61" cy="159" r="2" style="fill:#000"/><line x1="61" x2="135" y1="76.5" y2="76.5"/><line x1="40" x2="61" y1="159" y2="159"/><line x1="61" x2="61" y1="159" y2="116.5"/><circle cx="61" cy="116.5" r="2" style="fill:#000"/><line x1="61" x2="135" y1="116.5" y2="116.5"/><line x1="507" x2="517" y1="190" y2="190"/><line x1="517" x2="517" y1="190" y2="139"/><line x1="517" x2="542" y1="139" y2="139"/><line x1="572" x2="585" y1="139" y2="139"/><line x1="585" x2="585" y1="139" y2="283"/><line x1="585" x2="462" y1="283" y2="283"/><line x1="462" x2="462" y1="283" y2="180"/><line x1="462" x2="487" y1="180" y2="180"/><line x1="572" x2="585" y1="139" y2="139"/><line x1="585" x2="585" y1="139" y2="12"/><line x1="585" x2="71" y1="12" y2="12"/><line x1="71" x2="71" y1="12" y2="56.5"/><circle cx="71" cy="56.5" r="2" style="fill:#000"/><circle cx="585" cy="139" r="2" style="fill:#000"/><line x1="71" x2="135" y1="56.5" y2="56.5"/><line x1="572" x2="585" y1="139" y2="139"/><line x1="585" x2="585" y1="139" y2="12"/><line x1="585" x2="71" y1="12" y2="12"/><line x1="71" x2="71" y1="12" y2="96.5"/><line x1="71" x2="135" y1="96.5" y2="96.5"/><line x1="439.333" x2="487" y1="200" y2="200"/><line x1="441" x2="497" y1="273" y2="273"/><line x1="497" x2="497" y1="273" y2="205"/><line x1="163" x2="419.333" y1="190" y2="190"/><line x1="163" x2="429.333" y1="249" y2="249"/><line x1="429.333" x2="429.333" y1="249" y2="215"/><line x1="40" x2="135" y1="36.5" y2="36.5"/><line x1="40" x2="71" y1="218" y2="218"/><line x1="71" x2="71" y1="218" y2="136.5"/><line x1="71" x2="135" y1="136.5" y2="136.5"/></svg>